<svg width="50" height="56" viewBox="0 0 50 56" fill="none" xmlns="http://www.w3.org/2000/svg">
<path d="M44.4431 55.5556H8.33203V0H44.4431C47.4987 0 49.9987 2.5 49.9987 5.55556V50C49.9987 53.0556 47.4987 55.5556 44.4431 55.5556Z" fill="#59A8F6"/>
<path d="M5.55556 0H8.33333V55.5556H5.55556C2.5 55.5556 0 53.0556 0 50V5.55556C0 2.5 2.5 0 5.55556 0Z" fill="#1976D2"/>
<path d="M27.7763 27.7778C30.8445 27.7778 33.3318 25.2905 33.3318 22.2222C33.3318 19.154 30.8445 16.6667 27.7763 16.6667C24.708 16.6667 22.2207 19.154 22.2207 22.2222C22.2207 25.2905 24.708 27.7778 27.7763 27.7778Z" fill="#1976D2"/>
<path d="M37.4991 36.1112C37.4991 36.1112 34.8602 30.5556 27.7769 30.5556C20.6936 30.5556 18.0547 36.1112 18.0547 36.1112V38.8889H37.4991V36.1112Z" fill="#1976D2"/>
</svg>
