<svg width="48" height="65" viewBox="0 0 48 65" fill="none" xmlns="http://www.w3.org/2000/svg">
<path d="M9 59.1V11.9C9 8.655 11.655 6 14.9 6H38.5C41.745 6 44.4 8.655 44.4 11.9V59.1C44.4 62.345 41.745 65 38.5 65H14.9C11.655 65 9 62.345 9 59.1Z" fill="#1976D2"/>
<path d="M38.2156 10.1404H14.6156C13.7306 10.1404 13.1406 10.7304 13.1406 11.6154V54.3904C13.1406 55.2754 13.7306 55.8654 14.6156 55.8654H38.2156C39.1006 55.8654 39.6906 55.2754 39.6906 54.3904V11.6154C39.6906 10.7304 39.1006 10.1404 38.2156 10.1404Z" fill="#59A8F6"/>
<path d="M22.2734 59.1H31.1234V62.05H22.2734V59.1Z" fill="#59A8F6"/>
<path d="M48 26.3635C48 21.1921 43.7468 17 38.5 17C33.2532 17 29 21.1921 29 26.3635C29 31.037 32.4735 34.9114 37.0152 35.6133V29.07H34.6029V26.3635H37.0152V24.3008C37.0152 21.9537 38.4338 20.658 40.6041 20.658C41.6441 20.658 42.7307 20.8411 42.7307 20.8411V23.1453H41.533C40.3535 23.1453 39.9848 23.8666 39.9848 24.6074V26.3635H42.6195L42.1987 29.07H39.9848V35.6133C44.5265 34.9114 48 31.037 48 26.3635Z" fill="#59A8F6"/>
<path d="M42.1973 29.07L42.6181 26.3635H39.9835V24.6074C39.9835 23.8666 40.3508 23.1453 41.5316 23.1453H42.7293V20.8411C42.7293 20.8411 41.6428 20.658 40.6027 20.658C38.4325 20.658 37.0139 21.9537 37.0139 24.3008V26.3635H34.6016V29.07H37.0139V35.6133C37.498 35.6882 37.9934 35.7271 38.4987 35.7271C39.0039 35.7271 39.4993 35.6882 39.9835 35.6133V29.07H42.1973Z" fill="white"/>
<path d="M11 21.684C17.0751 21.684 22 16.8299 22 10.842C22 4.85413 17.0751 0 11 0C4.92487 0 0 4.85413 0 10.842C0 16.8299 4.92487 21.684 11 21.684Z" fill="#59A8F6"/>
<path d="M10.9998 5.24596C12.8495 5.24596 13.0678 5.25239 13.7979 5.28612C14.4726 5.31664 14.8392 5.42747 15.0837 5.52063C15.4063 5.64431 15.6377 5.79208 15.8806 6.03141C16.1234 6.27073 16.2733 6.49721 16.3988 6.81685C16.4933 7.05778 16.6057 7.41918 16.6367 8.08416C16.6693 8.80375 16.6775 9.02059 16.6775 10.842C16.6775 12.6635 16.6709 12.8803 16.6367 13.5999C16.6057 14.2649 16.4933 14.6263 16.3988 14.8672C16.2733 15.1853 16.1234 15.4134 15.8806 15.6527C15.6377 15.892 15.408 16.0398 15.0837 16.1635C14.8392 16.2566 14.4726 16.3675 13.7979 16.398C13.0678 16.4301 12.8495 16.4381 10.9998 16.4381C9.15019 16.4381 8.93182 16.4317 8.20175 16.398C7.52708 16.3675 7.16041 16.2566 6.91597 16.1635C6.5933 16.0398 6.3619 15.892 6.11908 15.6527C5.87627 15.4134 5.72634 15.1869 5.60086 14.8672C5.50634 14.6263 5.3939 14.2649 5.36293 13.5999C5.33034 12.8803 5.32219 12.6635 5.32219 10.842C5.32219 9.02059 5.32871 8.80375 5.36293 8.08416C5.3939 7.41918 5.50634 7.05778 5.60086 6.81685C5.72634 6.49882 5.87627 6.27073 6.11908 6.03141C6.3619 5.79208 6.59167 5.64431 6.91597 5.52063C7.16041 5.42747 7.52708 5.31664 8.20175 5.28612C8.93182 5.25399 9.15182 5.24596 10.9998 5.24596ZM10.9998 4.01559C9.11923 4.01559 8.88293 4.02363 8.14471 4.05736C7.40812 4.09109 6.90456 4.20513 6.46293 4.37539C6.00827 4.55047 5.62204 4.78337 5.23582 5.16244C4.85123 5.54151 4.6133 5.92218 4.4373 6.37192C4.26619 6.80561 4.14886 7.30193 4.11464 8.02955C4.08041 8.75717 4.07227 8.99007 4.07227 10.8437C4.07227 12.6972 4.08041 12.9301 4.11464 13.6578C4.14886 14.3838 4.26456 14.8801 4.4373 15.3154C4.61493 15.7635 4.85123 16.1442 5.23582 16.5249C5.62041 16.9039 6.00664 17.1384 6.46293 17.3119C6.90293 17.4806 7.40649 17.5962 8.14471 17.6299C8.88293 17.6637 9.11923 17.6717 10.9998 17.6717C12.8804 17.6717 13.1167 17.6637 13.8549 17.6299C14.5915 17.5962 15.0951 17.4822 15.5367 17.3119C15.9914 17.1368 16.3776 16.9039 16.7638 16.5249C17.1484 16.1458 17.3863 15.7651 17.5623 15.3154C17.7335 14.8817 17.8508 14.3854 17.885 13.6578C17.9192 12.9301 17.9274 12.6972 17.9274 10.8437C17.9274 8.99007 17.9192 8.75717 17.885 8.02955C17.8508 7.30353 17.7351 6.80721 17.5623 6.37192C17.3847 5.92379 17.1484 5.54311 16.7638 5.16244C16.3792 4.78337 15.993 4.54886 15.5367 4.37539C15.0967 4.20674 14.5932 4.09109 13.8549 4.05736C13.1167 4.02363 12.8804 4.01559 10.9998 4.01559Z" fill="white"/>
<path d="M10.9992 7.33722C9.03551 7.33722 7.44336 8.9065 7.44336 10.842C7.44336 12.7775 9.03551 14.3468 10.9992 14.3468C12.9629 14.3468 14.5551 12.7775 14.5551 10.842C14.5551 8.9065 12.9629 7.33722 10.9992 7.33722ZM10.9992 13.118C9.72484 13.118 8.69003 12.0997 8.69003 10.842C8.69003 9.58433 9.72321 8.56598 10.9992 8.56598C12.2752 8.56598 13.3084 9.58433 13.3084 10.842C13.3084 12.0997 12.2752 13.118 10.9992 13.118Z" fill="white"/>
<path d="M14.6963 8.01671C15.1554 8.01671 15.5275 7.64995 15.5275 7.19753C15.5275 6.74511 15.1554 6.37836 14.6963 6.37836C14.2373 6.37836 13.8652 6.74511 13.8652 7.19753C13.8652 7.64995 14.2373 8.01671 14.6963 8.01671Z" fill="white"/>
<path d="M13.9709 52.6554C19.4777 52.6554 23.9419 48.2554 23.9419 42.8277C23.9419 37.4 19.4777 33 13.9709 33C8.46414 33 4 37.4 4 42.8277C4 48.2554 8.46414 52.6554 13.9709 52.6554Z" fill="#59A8F6"/>
<path d="M11.9567 48.4885C16.827 48.4885 19.4903 44.5123 19.4903 41.0631C19.4903 40.9495 19.4874 40.8374 19.4829 40.7253C19.9999 40.357 20.449 39.8969 20.8035 39.3742C20.3293 39.5824 19.8182 39.7222 19.2835 39.7848C19.8301 39.4615 20.2496 38.9505 20.4475 38.3419C19.9364 38.6404 19.3692 38.8588 18.7665 38.9753C18.2835 38.4686 17.5951 38.1512 16.8343 38.1512C15.3719 38.1512 14.1858 39.3203 14.1858 40.7603C14.1858 40.9656 14.2094 41.1636 14.2552 41.3557C12.0542 41.2466 10.1029 40.2085 8.79851 38.6287C8.57103 39.0146 8.43956 39.463 8.43956 39.9406C8.43956 40.8462 8.90635 41.6455 9.61834 42.1128C9.18406 42.0997 8.77636 41.9818 8.41888 41.7867C8.41888 41.7969 8.41888 41.8086 8.41888 41.8202C8.41888 43.084 9.33177 44.1395 10.5431 44.3783C10.32 44.438 10.0866 44.47 9.84583 44.47C9.67595 44.47 9.50903 44.454 9.34802 44.4235C9.68482 45.4601 10.6627 46.2143 11.8208 46.2361C10.9138 46.9364 9.77345 47.3528 8.53262 47.3528C8.31843 47.3528 8.10867 47.3412 7.90039 47.3164C9.07179 48.0561 10.4633 48.4885 11.9582 48.4885" fill="white"/>
</svg>
